<svg width="198" height="32" viewBox="0 0 198 32" fill="none" xmlns="http://www.w3.org/2000/svg">
<path d="M198 18.5802L193.356 27.5649V31.9999H190.088V27.5649L185.444 18.5802H189.151L191.751 24.2004L194.331 18.5802H198Z" fill="#33B249"/>
<path d="M180.87 31.9999L178.079 26.9341H177.296V31.9999H174.028V18.5802H179.513C180.57 18.5802 181.469 18.765 182.208 19.1346C182.959 19.5042 183.52 20.0139 183.889 20.6639C184.259 21.3011 184.444 22.0148 184.444 22.8049C184.444 23.697 184.189 24.4936 183.679 25.1945C183.182 25.8954 182.443 26.3924 181.462 26.6856L184.558 31.9999H180.87ZM177.296 24.621H179.322C179.921 24.621 180.367 24.4744 180.66 24.1813C180.965 23.8882 181.118 23.474 181.118 22.9388C181.118 22.429 180.965 22.0275 180.66 21.7344C180.367 21.4413 179.921 21.2947 179.322 21.2947H177.296V24.621Z" fill="#33B249"/>
<path d="M166.956 21.1992V23.9137H171.333V26.437H166.956V29.381H171.906V31.9999H163.688V18.5802H171.906V21.1992H166.956Z" fill="#33B249"/>
<path d="M162.322 18.5802L157.564 31.9999H153.474L148.715 18.5802H152.193L155.519 28.7119L158.863 18.5802H162.322Z" fill="#33B249"/>
<path d="M147.36 18.5802V31.9999H144.091V18.5802H147.36Z" fill="#33B249"/>
<path d="M138.251 29.4766H142.532V31.9999H134.983V18.5802H138.251V29.4766Z" fill="#33B249"/>
<path d="M127.911 21.1992V23.9137H132.288V26.437H127.911V29.381H132.861V31.9999H124.643V18.5802H132.861V21.1992H127.911Z" fill="#33B249"/>
<path d="M115.784 18.5802C117.198 18.5802 118.434 18.8606 119.492 19.4213C120.549 19.9821 121.365 20.7722 121.938 21.7918C122.524 22.7986 122.817 23.9647 122.817 25.2901C122.817 26.6027 122.524 27.7688 121.938 28.7884C121.365 29.8079 120.543 30.598 119.473 31.1588C118.415 31.7195 117.186 31.9999 115.784 31.9999H110.758V18.5802H115.784ZM115.574 29.1707C116.81 29.1707 117.772 28.833 118.46 28.1575C119.148 27.4821 119.492 26.5263 119.492 25.2901C119.492 24.0539 119.148 23.0917 118.46 22.4035C117.772 21.7153 116.81 21.3712 115.574 21.3712H114.026V29.1707H115.574Z" fill="#33B249"/>
<path d="M156.001 11.6348H160.281V14.1581H152.732V0.738403H156.001V11.6348Z" fill="#33B249"/>
<path d="M146.993 11.7877H141.985L141.183 14.1581H137.762L142.616 0.738403H146.4L151.254 14.1581H147.795L146.993 11.7877ZM146.152 9.2643L144.489 4.3514L142.845 9.2643H146.152Z" fill="#33B249"/>
<path d="M131.569 3.35735V6.07187H135.946V8.59523H131.569V11.5392H136.519V14.1581H128.301V0.738403H136.519V3.35735H131.569Z" fill="#33B249"/>
<path d="M125.952 0.738403V14.1581H122.683V6.1101L119.683 14.1581H117.046L114.026 6.09099V14.1581H110.758V0.738403H114.618L118.383 10.029L122.11 0.738403H125.952Z" fill="#33B249"/>
<path d="M100.39 0.00012207H82.8167C82.4649 0.00012207 82.1797 0.285412 82.1797 0.637334V18.1575C82.1797 18.7341 82.8836 19.0145 83.2786 18.5971L88.2317 13.3816V6.05364H95.8763L100.842 1.08657C101.243 0.685125 100.96 0.00012207 100.393 0.00012207H100.39Z" fill="#FF0000"/>
<path d="M82.1797 0.00012207L88.2317 13.3816V6.05364H95.8763L82.1797 0.00012207Z" fill="#2A943D"/>
<path d="M82.1797 0.00012207V18.1578C82.1797 18.7334 82.8823 19.0139 83.2786 18.5966L88.2317 13.3816L82.1797 0.00012207Z" fill="#33B249"/>
<path d="M82.1797 0.00012207L95.8763 6.05364L100.841 1.08791C101.242 0.68649 100.958 0.00012207 100.39 0.00012207H82.1797Z" fill="#33B249"/>
<path d="M24.5266 0.637334C24.5266 0.285411 24.2414 0.00012207 23.8896 0.00012207H0.637054C0.285219 0.00012207 0 0.285412 0 0.637334V5.41642C0 5.76835 0.285218 6.05364 0.637053 6.05364H9.23734V30.5862C9.23734 30.9382 9.52256 31.2235 9.87439 31.2235H14.6523C15.0041 31.2235 15.2893 30.9382 15.2893 30.5862V6.05364H23.8896C24.2414 6.05364 24.5266 5.76835 24.5266 5.41642V0.637334Z" fill="#fff"/>
<path d="M38.8631 0.00012207C29.3246 0.00012207 24.6407 7.70013 24.5294 15.4525C24.4166 23.3111 29.0083 31.2235 38.8631 31.2235C48.58 31.2235 53.1726 23.5235 53.1947 15.7711C53.2171 7.91253 48.537 0.00012207 38.8631 0.00012207ZM38.861 25.17C33.9063 25.17 30.5794 21.4902 30.5794 15.4525C30.5794 9.41477 33.9084 6.05364 38.8631 6.05364C43.8178 6.05364 47.1427 9.73338 47.1427 15.7711C47.1427 21.8088 43.8158 25.17 38.861 25.17Z" fill="#fff"/>
<path d="M69.7574 0.00012207H56.3793C56.0274 0.00012207 55.7422 0.285412 55.7422 0.637334V30.5863C55.7422 30.9382 56.0274 31.2235 56.3793 31.2235H61.1571C61.509 31.2235 61.7942 30.9382 61.7942 30.5863V20.7095H69.7574C82.8169 20.7095 82.8169 0.00012207 69.7574 0.00012207ZM69.7574 14.656H61.7942V6.05364H69.7574C75.481 6.05364 75.4908 14.656 69.7574 14.656Z" fill="#fff"/>
<path d="M83.5595 26.1172C83.2908 26.3859 83.247 26.809 83.4762 27.1121C85.5115 29.8031 88.7391 31.5418 92.3726 31.5418C98.5297 31.5418 103.521 26.5492 103.521 20.3906C103.521 16.6863 101.716 13.4038 98.9361 11.3759C98.7304 11.2257 98.4802 11.151 98.2255 11.151H94.6023C94.2505 11.151 93.9653 11.4363 93.9653 11.7882V15.189C93.9653 15.4627 94.142 15.7022 94.3923 15.8129C96.1483 16.5892 97.3737 18.3468 97.3737 20.3906C97.3737 23.1534 95.1346 25.393 92.3726 25.393C90.5093 25.393 88.8841 24.3739 88.0236 22.8625C87.8142 22.4946 87.298 22.3778 86.9987 22.6771L83.5595 26.1172Z" fill="#fff"/>
</svg>
